<?xml version="1.0" encoding="iso-8859-1"?>
<!-- Generator: Adobe Illustrator 19.0.0, SVG Export Plug-In . SVG Version: 6.00 Build 0)  -->
<svg version="1.1" id="Capa_1" xmlns="http://www.w3.org/2000/svg" xmlns:xlink="http://www.w3.org/1999/xlink" x="0px" y="0px"
	 viewBox="0 0 512.001 512.001" style="enable-background:new 0 0 512.001 512.001;" xml:space="preserve">
<path style="fill:#FF9B21;" d="M385.207,401.595c-11.609-6.022-20.559-7.008-20.559-7.008H147.353c0,0-8.951,0.986-20.559,7.008
	l-22.551,65.781l22.551,44.624h258.413l22.551-44.625L385.207,401.595z"/>
<g>
	<path style="fill:#EFEDEE;" d="M109.294,445.465l-29.246,20.621c-3.238,12.866-5.172,28.031-5.172,45.914h51.916v-45.914
		L109.294,445.465z"/>
	<path style="fill:#EFEDEE;" d="M402.706,445.465l29.246,20.621c3.238,12.866,5.171,28.031,5.171,45.914h-51.916v-45.914
		L402.706,445.465z"/>
</g>
<g>
	<path style="fill:#E87613;" d="M126.794,401.595v64.492H80.048C89.657,427.857,110.758,409.917,126.794,401.595z"/>
	<path style="fill:#E87613;" d="M385.207,401.595v64.492h46.746C422.344,427.857,401.242,409.917,385.207,401.595z"/>
</g>
<path style="fill:#ffaa43;" d="M126.794,356.513v100.551c0,14.237,11.541,25.778,25.778,25.778l0,0
	c14.237,0,25.778-11.541,25.778-25.778V356.513H126.794z"/>
<circle style="fill:#E87613;" cx="152.57" cy="452.878" r="9.63"/>
<path style="fill:#ffaa43;" d="M385.207,356.513v100.551c0,14.237-11.541,25.778-25.778,25.778l0,0
	c-14.237,0-25.778-11.541-25.778-25.778V356.513H385.207z"/>
<g>
	<circle style="fill:#E87613;" cx="359.43" cy="452.878" r="9.63"/>
	<ellipse style="fill:#E87613;" cx="256" cy="414.36" rx="53.806" ry="48.152"/>
</g>
<path style="fill:#828081;" d="M172.642,67.893C143.02,36.918,99.175,33.288,75.424,33.915c-10.91,0.288-20.416,7.434-23.738,17.828
	c-7.235,22.64-13.391,66.481,19.495,118.21L172.642,67.893z"/>
<path style="fill:#ffaa43;" d="M93.442,63.434c-0.055-0.005-0.109-0.009-0.163-0.014c-8.832-0.781-16.648,5.693-17.652,14.502
	c-2.146,18.82,0.428,45.648,20.026,76.475l56.032-66.462C135.416,70.922,112.076,65.102,93.442,63.434z"/>
<path style="fill:#828081;" d="M339.358,67.893c29.622-30.974,73.467-34.605,97.218-33.977c10.91,0.288,20.416,7.434,23.738,17.828
	c7.235,22.64,13.391,66.481-19.495,118.21L339.358,67.893z"/>
<path style="fill:#ffaa43;" d="M418.559,63.434c0.055-0.005,0.109-0.009,0.163-0.014c8.832-0.781,16.648,5.693,17.652,14.502
	c2.146,18.82-0.428,45.648-20.026,76.475l-56.032-66.462C376.585,70.922,399.925,65.102,418.559,63.434z"/>
<path style="fill:#9E9C9D;" d="M459.441,265.294c2.514-12.189,3.828-24.784,3.828-37.669c0-108.26-92.795-196.028-207.269-196.028
	S48.731,119.365,48.731,227.625c0,12.884,1.315,25.479,3.828,37.669l55.55,72.234h282.52L459.441,265.294z"/>
<path style="fill:#828081;" d="M52.559,265.294L52.559,265.294l55.55,72.234h7.155c-15.37-21.43-26.379-45.886-31.801-72.234
	c-2.514-12.189-3.828-24.784-3.828-37.669c0-103.344,84.559-188.009,191.817-195.486c-1.374-0.096-2.753-0.177-4.135-0.248
	c-0.645-0.033-1.293-0.058-1.939-0.086c-0.999-0.042-2.001-0.079-3.004-0.108c-0.56-0.016-1.121-0.033-1.682-0.044
	c-1.54-0.032-3.082-0.055-4.631-0.056c-0.021,0-0.041,0-0.062,0c-82.28,0-153.358,45.341-186.831,111.043
	c-1.456,2.857-2.839,5.752-4.151,8.683c-3.278,7.329-6.098,14.885-8.425,22.637c-0.466,1.55-0.912,3.109-1.337,4.675
	c-4.26,15.659-6.525,32.074-6.525,48.989c0,12.08,1.169,23.899,3.385,35.373C52.263,263.764,52.401,264.531,52.559,265.294z"/>
<path style="fill:#EFEDEE;" d="M459.441,265.294C440.873,355.537,356.856,423.653,256,423.653S71.127,355.536,52.559,265.294
	c49.761,44.203,114.833,31.154,145.127-25.151c9.869-18.356,19.506-31.144,28.013-40.037c16.548-17.312,44.058-17.312,60.607,0
	c8.506,8.893,18.144,21.681,28.013,40.037C344.609,296.448,409.681,309.497,459.441,265.294z"/>
<path style="fill:#D4D2D3;" d="M89.362,287.098c-12.678-4.254-25.16-11.461-36.803-21.804
	C71.127,355.537,155.145,423.653,256,423.653c0.029,0,0.058-0.001,0.087-0.001c1.383,0,2.762-0.018,4.138-0.043
	c0.747-0.015,1.493-0.038,2.238-0.061c0.59-0.018,1.181-0.035,1.77-0.057c0.991-0.038,1.98-0.081,2.967-0.132
	c0.275-0.014,0.55-0.029,0.824-0.043c1.146-0.063,2.289-0.131,3.429-0.211C185.713,417.129,114.493,361.834,89.362,287.098z"/>
<g>
	<path style="fill:#3A484A;" d="M162.202,247.291c-4.267,0-7.726-3.459-7.726-7.726v-18.238c0-4.267,3.459-7.726,7.726-7.726
		c4.267,0,7.726,3.459,7.726,7.726v18.238C169.929,243.832,166.469,247.291,162.202,247.291z"/>
	<path style="fill:#3A484A;" d="M349.798,247.291c-4.267,0-7.726-3.459-7.726-7.726v-18.238c0-4.267,3.459-7.726,7.726-7.726
		c4.267,0,7.726,3.459,7.726,7.726v18.238C357.525,243.832,354.065,247.291,349.798,247.291z"/>
</g>
<path style="fill:#313D40;" d="M279.017,235.859c0,8.073-10.305,14.616-23.016,14.616c-12.711,0-23.016-6.544-23.016-14.616
	C232.984,227.787,279.017,227.787,279.017,235.859z"/>
<path style="fill:#3A484A;" d="M296.393,259.47c-3.212-2.808-8.093-2.481-10.902,0.732c-2.871,3.284-7.186,5.169-11.836,5.169
	c-4.65,0-8.965-1.884-11.836-5.169c-1.456-1.651-3.611-2.634-5.814-2.634c-2.198,0-4.377,0.968-5.819,2.634
	c-2.872,3.284-7.187,5.169-11.837,5.169c-4.651,0-8.965-1.884-11.836-5.169c-2.808-3.213-7.69-3.541-10.902-0.732
	c-3.213,2.808-3.541,7.689-0.732,10.902c5.806,6.643,14.361,10.452,23.471,10.452c6.417,0,12.554-1.898,17.653-5.337
	c5.099,3.44,11.236,5.337,17.653,5.337c9.11,0,17.665-3.81,23.471-10.452C299.933,267.159,299.605,262.278,296.393,259.47z"/>
<g>
	<path style="fill:#E87613;" d="M240.873,47.275c-37.639,26.86-62.575,30.298-62.575-13.707s24.938-40.566,62.575-13.707V47.275z"/>
	<path style="fill:#E87613;" d="M271.127,47.275c37.639,26.86,62.575,30.298,62.575-13.707s-24.937-40.565-62.575-13.707V47.275z"/>
</g>
<path style="fill:#a95d00;" d="M317.269,23.037c-20.712-4.487-53.721,1.237-61.269,2.661c-7.549-1.423-40.558-7.148-61.269-2.661
	c-4.17,0.903-6.819,5.016-5.915,9.187c0.903,4.17,5.019,6.819,9.187,5.914c19.833-4.297,56.102,2.929,56.466,3.002
	c0.022,0.004,0.043,0.005,0.066,0.01c0.199,0.038,0.401,0.068,0.604,0.091c0.042,0.005,0.084,0.013,0.127,0.018
	c0.241,0.023,0.483,0.037,0.728,0.037c0.002,0,0.004,0,0.006,0c0.002,0,0.004,0,0.006,0c0.245,0,0.488-0.014,0.729-0.037
	c0.041-0.003,0.081-0.011,0.123-0.016c0.204-0.023,0.406-0.053,0.607-0.091c0.022-0.004,0.044-0.005,0.066-0.01
	c0.364-0.073,36.633-7.298,56.466-3.002c4.168,0.904,8.284-1.744,9.187-5.914C324.088,28.054,321.439,23.941,317.269,23.037z"/>
<path style="fill:#FF9B21;" d="M259.401,15.525H252.6c-9.965,0-18.043,8.078-18.043,18.043l0,0c0,9.965,8.078,18.043,18.043,18.043
	h6.801c9.965,0,18.043-8.078,18.043-18.043l0,0C277.445,23.603,269.366,15.525,259.401,15.525z"/>
<g>
</g>
<g>
</g>
<g>
</g>
<g>
</g>
<g>
</g>
<g>
</g>
<g>
</g>
<g>
</g>
<g>
</g>
<g>
</g>
<g>
</g>
<g>
</g>
<g>
</g>
<g>
</g>
<g>
</g>
</svg>
